<?xml version="1.0" encoding="utf-8"?>
<!-- Generator: Adobe Illustrator 16.0.0, SVG Export Plug-In . SVG Version: 6.00 Build 0)  -->
<!DOCTYPE svg PUBLIC "-//W3C//DTD SVG 1.1//EN" "http://www.w3.org/Graphics/SVG/1.1/DTD/svg11.dtd">
<svg version="1.1" id="Layer_1" xmlns="http://www.w3.org/2000/svg" xmlns:xlink="http://www.w3.org/1999/xlink" x="0px" y="0px"
	 width="130px" height="130px" viewBox="0 0 130 130" enable-background="new 0 0 130 130" xml:space="preserve">
<g>
	<path fill="#fff" d="M112.658,113.207c-0.457,0-0.909-0.17-1.258-0.493L95.179,97.675H44.423c-0.065,0-0.129-0.003-0.192-0.01
		c-15.047-1.577-27.759-15.593-28.939-31.907l-0.086-0.971c-0.006-0.054-0.008-0.109-0.008-0.164V16.571
		c0-1.021,0.828-1.851,1.85-1.851h65.006c17.002,0,31.221,13.279,32.371,30.23c0.07,1.02-0.701,1.901-1.719,1.971
		c-0.998,0.071-1.902-0.701-1.972-1.721c-1.02-15.017-13.617-26.779-28.681-26.779H18.896v46.119l0.082,0.919
		c1.056,14.579,12.265,27.07,25.543,28.515h51.383c0.467,0,0.916,0.176,1.258,0.494l13.641,12.646l-0.045-37.775
		c-0.002-1.021,0.826-1.851,1.848-1.853h0.002c1.021,0,1.85,0.828,1.85,1.849l0.051,42.02c0,0.736-0.436,1.403-1.108,1.697
		C113.161,113.156,112.908,113.207,112.658,113.207z"/>
</g>
<g>
	<path fill="#fff" d="M63.705,89.5c-6.832,0-12.392-5.558-12.392-12.389c0-1.021,0.827-1.85,1.851-1.85
		c1.021,0,1.849,0.828,1.849,1.85c0,4.791,3.899,8.688,8.692,8.688c4.788,0,8.684-3.897,8.684-8.688c0-1.021,0.829-1.85,1.85-1.85
		c1.022,0,1.85,0.828,1.85,1.85C76.088,83.942,70.533,89.5,63.705,89.5z"/>
</g>
<g>
	<path fill="#fff" d="M51.751,73.861"/>
</g>
<g>
	<path fill="#fff" d="M78.795,73.412c-0.643,0-1.074-0.061-1.131-0.068c-1.012-0.15-1.709-1.092-1.56-2.102
		c0.149-1.008,1.077-1.704,2.092-1.561c0.044,0.006,2.706,0.343,3.768-1.236c0.694-1.037,1.68-4.539-4.17-14.629
		c-0.513-0.883-0.211-2.016,0.673-2.527c0.885-0.514,2.015-0.211,2.529,0.672c5.153,8.891,6.469,14.967,4.021,18.574
		C83.318,73.035,80.4,73.412,78.795,73.412z"/>
</g>
<g>
	<path fill="#fff" d="M48.423,73.412c-1.604,0-4.523-0.377-6.221-2.877c-2.448-3.607-1.134-9.683,4.021-18.574
		c0.512-0.883,1.644-1.186,2.528-0.672c0.884,0.512,1.186,1.645,0.673,2.527c-5.85,10.09-4.863,13.592-4.169,14.629
		c1.062,1.584,3.738,1.238,3.767,1.236c1-0.143,1.943,0.564,2.088,1.572c0.143,1.007-0.548,1.939-1.555,2.09
		C49.498,73.352,49.065,73.412,48.423,73.412z"/>
</g>
<g>
	<path fill="#fff" d="M31.045,86.009"/>
</g>
<g>
	<path fill="#fff" d="M48.755,52.801l1.353-1.151c-1.35-1.591-2.114-3.6-2.114-5.698c0-3.611,2.153-6.846,5.485-8.237
		c0.271-0.114,0.512-0.29,0.701-0.514c2.698-3.198,6.637-5.031,10.805-5.031c7.8,0,14.146,6.347,14.146,14.146
		c0,2.558-0.689,5.061-1.994,7.241c-0.031,0.052-0.05,0.107-0.075,0.161c0.34-0.407,0.844-0.671,1.415-0.671
		c1.021,0,1.85,0.828,1.85,1.85v0.536c1.638-2.749,2.504-5.899,2.504-9.117c0-9.841-8.006-17.847-17.846-17.847
		c-5.113,0-9.952,2.186-13.345,6.012c-4.478,2.059-7.346,6.513-7.346,11.471c0,3.381,1.389,6.599,3.811,8.958V54.21
		C48.104,53.667,48.342,53.152,48.755,52.801z"/>
	<path fill="#fff" d="M80.326,57.234v-1.802c-0.005,0.007-0.008,0.016-0.013,0.022c-0.347,0.58-0.96,0.9-1.591,0.9
		c-0.322,0-0.65-0.084-0.946-0.262c-0.824-0.493-1.118-1.525-0.715-2.376c-0.268,0.321-0.435,0.729-0.435,1.179v2.338
		c0,6.844-5.57,12.411-12.414,12.411c-6.842,0-12.409-5.567-12.409-12.411v-2.17l7.683-6.539c1.773,1.517,5.331,3.883,10.914,4.764
		l1.965-3.477c-7.775-0.761-11.222-4.789-11.359-4.951c-0.312-0.388-0.77-0.632-1.266-0.678c-0.503-0.044-0.99,0.109-1.369,0.434
		l-8.264,7.032c0.294,0.344,0.604,0.675,0.949,0.976c0.773,0.669,0.857,1.838,0.187,2.609c-0.669,0.771-1.841,0.855-2.609,0.186
		c-0.187-0.162-0.354-0.34-0.529-0.511v2.325c0,8.884,7.226,16.111,16.108,16.111C73.098,73.346,80.326,66.118,80.326,57.234z"/>
	<path fill="#fff" d="M51.243,55.234c0.671-0.771,0.587-1.94-0.187-2.609c-0.346-0.301-0.655-0.632-0.949-0.976l-1.353,1.151
		c-0.413,0.352-0.65,0.866-0.65,1.409v0.699c0.176,0.171,0.343,0.349,0.529,0.511C49.402,56.09,50.574,56.006,51.243,55.234z"/>
	<path fill="#fff" d="M78.477,53.047c-0.571,0-1.075,0.264-1.415,0.671c-0.403,0.851-0.109,1.883,0.715,2.376
		c0.296,0.178,0.624,0.262,0.946,0.262c0.631,0,1.244-0.32,1.591-0.9c0.005-0.007,0.008-0.016,0.013-0.022v-0.536
		C80.326,53.875,79.498,53.047,78.477,53.047z"/>
	<path fill="#fff" d="M89.543,80.836c-0.057-0.025-0.114-0.049-0.174-0.068l-13.22-4.517c-0.969-0.33-2.019,0.187-2.349,1.153
		s0.186,2.018,1.154,2.348l13.126,4.484c3.739,1.755,6.151,5.544,6.151,9.678c0,1.021,0.828,1.851,1.85,1.851s1.85-0.829,1.85-1.851
		C97.932,88.309,94.64,83.175,89.543,80.836z"/>
	<path fill="#fff" d="M50.979,76.251l-13.221,4.517c-0.059,0.02-0.117,0.043-0.174,0.068c-3.82,1.755-6.676,5.072-7.832,9.104
		c-0.283,0.982,0.287,2.008,1.268,2.289c0.17,0.049,0.343,0.072,0.512,0.072c0.804,0,1.543-0.529,1.777-1.341
		c0.85-2.964,2.939-5.41,5.738-6.724l13.127-4.484c0.967-0.33,1.482-1.381,1.153-2.348S51.946,75.92,50.979,76.251z"/>
</g>
<rect fill="none" width="130" height="130"/>
</svg>
