<svg id="rus" xmlns="http://www.w3.org/2000/svg" width="211" height="61.335" viewBox="0 0 211 61.335">
  <g id="Group_10" data-name="Group 10" transform="translate(87.435 10.552)">
    <g id="Group_9" data-name="Group 9" transform="translate(38.106)">
      <g id="Group_5" data-name="Group 5">
        <path id="Path_36" data-name="Path 36" d="M355.036,67.953c-4.362,0-9.806-1.305-13.013-4.362a16.16,16.16,0,0,1-4.623-11.82V29.4h11.633V51.771c0,2.051.485,4.362,2.125,5.742a6.525,6.525,0,0,0,6.227.858c3.02-1.119,3.654-4.325,3.654-7.2V29.4h12.118V51.809a16.394,16.394,0,0,1-4.474,11.633C365.476,66.574,359.436,67.953,355.036,67.953Z" transform="translate(-337.4 -29.027)" fill="#fff"/>
        <path id="Path_37" data-name="Path 37" d="M457.416,67.364A26.6,26.6,0,0,1,440.786,61.7l-.186-.149,3.654-4.773a3.848,3.848,0,0,1,3.244-1.529,7.3,7.3,0,0,1,3.281.858,14.893,14.893,0,0,0,6.562,2.088h.3c2.61,0,4.027-.783,4.176-2.312.261-2.2-2.461-2.871-4.437-3.318l-1.044-.261c-4.586-1.081-9.806-2.312-12.3-6.562A10.56,10.56,0,0,1,446.118,32.8c3.878-3.617,9.21-4.4,13.013-4.4.41,0,.858,0,1.268.037A23.629,23.629,0,0,1,474.008,33.1l.186.149L471.1,38.02a4.131,4.131,0,0,1-3.43,1.79,7.766,7.766,0,0,1-3.02-.746,14.148,14.148,0,0,0-5.667-1.454,9.084,9.084,0,0,0-1.007.037,3.832,3.832,0,0,0-2.312.895,1.94,1.94,0,0,0-.522,1.38,1.108,1.108,0,0,0,.373.858c1.342,1.119,3.281,1.566,5.183,2.013.6.149,1.156.261,1.678.41,5.22,1.417,10.216,3.43,11.6,8.277A11.946,11.946,0,0,1,469.2,64.157C465.432,66.767,460.7,67.364,457.416,67.364Z" transform="translate(-402.121 -28.4)" fill="#fff"/>
      </g>
      <g id="Group_8" data-name="Group 8" transform="translate(75.839 0.373)">
        <path id="Path_38" data-name="Path 38" d="M545.573,29.4a4.847,4.847,0,1,0,4.847,4.847A4.861,4.861,0,0,0,545.573,29.4Zm0,8.911a4.1,4.1,0,1,1,4.1-4.1A4.1,4.1,0,0,1,545.573,38.311Z" transform="translate(-540.8 -29.4)" fill="#fff"/>
        <g id="Group_7" data-name="Group 7" transform="translate(2.647 2.349)">
          <g id="Group_6" data-name="Group 6">
            <path id="Path_39" data-name="Path 39" d="M547.9,35.7h2.349a2.07,2.07,0,0,1,1.491.522,1.545,1.545,0,0,1,.448,1.156h0a1.7,1.7,0,0,1-.3,1.007,1.521,1.521,0,0,1-.783.559l1.23,1.827h-1.3l-1.081-1.641h-.895v1.641h-1.119V35.7Zm2.237,2.461a1.067,1.067,0,0,0,.634-.186.677.677,0,0,0,.224-.522h0a.759.759,0,0,0-.224-.559,1.067,1.067,0,0,0-.634-.186h-1.119v1.454Z" transform="translate(-547.9 -35.7)" fill="#fff"/>
          </g>
        </g>
      </g>
    </g>
    <path id="Path_40" data-name="Path 40" d="M262.419,53.075a11.878,11.878,0,0,0,6.152-10.925v-.112a12.06,12.06,0,0,0-3.393-8.874,13.2,13.2,0,0,0-4.922-2.983,21.891,21.891,0,0,0-7.308-1.081H235.2V66.572h11.26v-11H250c.447,0,.858,0,1.268-.037v.037s3.132,4.661,5.332,8.054c1.9,2.908,5.817,2.908,8.538,2.908h6.45S264.917,56.766,262.419,53.075ZM246.5,46.512V38.943h6.04a6.119,6.119,0,0,1,3.617.969,3.225,3.225,0,0,1,1.23,2.8v.112a3.373,3.373,0,0,1-1.193,2.685,5.607,5.607,0,0,1-3.579,1.044H246.5Z" transform="translate(-235.2 -28.839)" fill="#fff"/>
  </g>
  <g id="Group_12" data-name="Group 12" transform="translate(87.882 55.481)">
    <g id="Group_11" data-name="Group 11">
      <path id="Path_41" data-name="Path 41" d="M236.4,149h2.461a2.449,2.449,0,0,1,.932.149,2.029,2.029,0,0,1,.671.41,1.419,1.419,0,0,1,.336.485,1.741,1.741,0,0,1,.112.634h0a1.741,1.741,0,0,1-.112.634,1.648,1.648,0,0,1-.82.82,3.152,3.152,0,0,1-.634.186l1.752,2.312h-.783l-1.641-2.2h-1.641v2.2H236.4V149Zm2.386,2.908a2.9,2.9,0,0,0,.6-.075,1.257,1.257,0,0,0,.447-.224,1.46,1.46,0,0,0,.3-.373,1.032,1.032,0,0,0,.112-.485h0a.96.96,0,0,0-.373-.82,1.778,1.778,0,0,0-1.081-.3h-1.752v2.312h1.752Z" transform="translate(-236.4 -148.963)" fill="#fff"/>
      <path id="Path_42" data-name="Path 42" d="M253.5,149h.634v5.7H253.5Z" transform="translate(-247.124 -148.963)" fill="#fff"/>
      <path id="Path_43" data-name="Path 43" d="M262.946,154.817a3.091,3.091,0,0,1-1.193-.224,2.754,2.754,0,0,1-.932-.634,3.063,3.063,0,0,1-.6-.932,2.993,2.993,0,0,1-.224-1.119h0a2.854,2.854,0,0,1,.224-1.119,2.67,2.67,0,0,1,.6-.932,2.754,2.754,0,0,1,.932-.634,3.293,3.293,0,0,1,2.386,0,2.754,2.754,0,0,1,.932.634,3.063,3.063,0,0,1,.6.932,2.993,2.993,0,0,1,.224,1.119h0a2.854,2.854,0,0,1-.224,1.119,2.67,2.67,0,0,1-.6.932,2.754,2.754,0,0,1-.932.634A3.23,3.23,0,0,1,262.946,154.817Zm0-.6a2.252,2.252,0,0,0,.895-.186,2.387,2.387,0,0,0,.708-.485A2.481,2.481,0,0,0,265,152.8a2.507,2.507,0,0,0,.149-.895h0a2.575,2.575,0,0,0-.149-.932,1.986,1.986,0,0,0-.485-.746,2.5,2.5,0,0,0-.708-.522,2.241,2.241,0,0,0-1.79,0,2.389,2.389,0,0,0-.708.485,2.381,2.381,0,0,0-.6,1.641h0a2.575,2.575,0,0,0,.149.932,1.987,1.987,0,0,0,.485.746,2.493,2.493,0,0,0,.708.522A2.252,2.252,0,0,0,262.946,154.22Z" transform="translate(-251.201 -148.963)" fill="#fff"/>
      <path id="Path_44" data-name="Path 44" d="M290.186,154.817a2.781,2.781,0,0,1-.969-.149,1.986,1.986,0,0,1-.746-.485,2.128,2.128,0,0,1-.485-.783,3.117,3.117,0,0,1-.186-1.081V149h.634v3.281a2.019,2.019,0,0,0,.447,1.417,1.631,1.631,0,0,0,1.268.485,1.686,1.686,0,0,0,1.268-.485,1.858,1.858,0,0,0,.447-1.417V149h.634v3.281a3.116,3.116,0,0,1-.186,1.081,1.863,1.863,0,0,1-.485.783,1.987,1.987,0,0,1-.746.485A2.12,2.12,0,0,1,290.186,154.817Z" transform="translate(-268.635 -148.963)" fill="#fff"/>
      <path id="Path_45" data-name="Path 45" d="M305.7,149h2.461a2.449,2.449,0,0,1,.932.149,2.03,2.03,0,0,1,.671.41,1.419,1.419,0,0,1,.336.485,1.741,1.741,0,0,1,.112.634h0a1.741,1.741,0,0,1-.112.634,1.648,1.648,0,0,1-.82.82,3.15,3.15,0,0,1-.634.186l1.752,2.312h-.783l-1.641-2.2h-1.641v2.2H305.7Zm2.386,2.908a2.9,2.9,0,0,0,.6-.075,1.256,1.256,0,0,0,.447-.224,1.461,1.461,0,0,0,.3-.373,1.032,1.032,0,0,0,.112-.485h0a.96.96,0,0,0-.373-.82,1.778,1.778,0,0,0-1.081-.3h-1.752v2.312h1.752Z" transform="translate(-279.861 -148.963)" fill="#fff"/>
      <path id="Path_46" data-name="Path 46" d="M324.686,154.817a2.781,2.781,0,0,1-.969-.149,1.986,1.986,0,0,1-.746-.485,2.128,2.128,0,0,1-.485-.783,3.117,3.117,0,0,1-.186-1.081V149h.634v3.281a2.019,2.019,0,0,0,.447,1.417,1.631,1.631,0,0,0,1.268.485,1.686,1.686,0,0,0,1.268-.485,1.858,1.858,0,0,0,.447-1.417V149H327v3.281a3.117,3.117,0,0,1-.187,1.081,1.863,1.863,0,0,1-.485.783,1.987,1.987,0,0,1-.746.485A2.253,2.253,0,0,1,324.686,154.817Z" transform="translate(-290.272 -148.963)" fill="#fff"/>
      <path id="Path_47" data-name="Path 47" d="M342.571,154.754a2.962,2.962,0,0,1-1.193-.224,2.289,2.289,0,0,1-.895-.634,2.67,2.67,0,0,1-.6-.932,3.011,3.011,0,0,1-.186-1.156h0a2.993,2.993,0,0,1,.224-1.119,2.67,2.67,0,0,1,.6-.932,3.009,3.009,0,0,1,.895-.634,2.9,2.9,0,0,1,1.156-.224,4.051,4.051,0,0,1,.671.037,3.106,3.106,0,0,1,.559.149c.186.075.336.149.485.224a3.5,3.5,0,0,1,.447.336l-.41.485a2.052,2.052,0,0,0-.336-.261,1.743,1.743,0,0,0-.373-.186,2.1,2.1,0,0,0-.447-.149,2.469,2.469,0,0,0-.559-.037,2.211,2.211,0,0,0-.858.186,1.822,1.822,0,0,0-.671.522,2.381,2.381,0,0,0-.6,1.641h0a2.449,2.449,0,0,0,.149.932,2.482,2.482,0,0,0,.447.746,1.852,1.852,0,0,0,.708.485,2.443,2.443,0,0,0,.932.186,2.575,2.575,0,0,0,.932-.149,2.534,2.534,0,0,0,.708-.41v-1.417h-1.752v-.6h2.349V153.9a3.554,3.554,0,0,1-.969.6A4.168,4.168,0,0,1,342.571,154.754Z" transform="translate(-301.184 -148.9)" fill="#fff"/>
      <path id="Path_48" data-name="Path 48" d="M360.586,154.817a2.781,2.781,0,0,1-.969-.149,1.986,1.986,0,0,1-.746-.485,2.128,2.128,0,0,1-.485-.783,3.118,3.118,0,0,1-.186-1.081V149h.634v3.281a2.019,2.019,0,0,0,.447,1.417,1.631,1.631,0,0,0,1.268.485,1.686,1.686,0,0,0,1.268-.485,1.858,1.858,0,0,0,.447-1.417V149h.634v3.281a3.119,3.119,0,0,1-.186,1.081,1.864,1.864,0,0,1-.485.783,2.445,2.445,0,0,1-1.641.671Z" transform="translate(-312.786 -148.963)" fill="#fff"/>
      <path id="Path_49" data-name="Path 49" d="M377.41,148.9h.6l2.61,5.742h-.708l-.671-1.491h-3.095l-.671,1.491H374.8Zm1.6,3.654-1.3-2.908-1.305,2.908Z" transform="translate(-323.197 -148.9)" fill="#fff"/>
      <path id="Path_50" data-name="Path 50" d="M395.286,152.53,392.9,149.1h.783l1.9,2.834,1.939-2.834h.746l-2.386,3.43V154.8h-.634V152.53Z" transform="translate(-334.548 -149.025)" fill="#fff"/>
      <path id="Path_51" data-name="Path 51" d="M418.849,154.717a3.63,3.63,0,0,1-1.268-.224,3.282,3.282,0,0,1-1.081-.671l.41-.485a3.12,3.12,0,0,0,.895.6,2.371,2.371,0,0,0,1.044.186,1.455,1.455,0,0,0,.932-.261.866.866,0,0,0,.336-.708h0a.892.892,0,0,0-.075-.336.782.782,0,0,0-.224-.3,2.482,2.482,0,0,0-.447-.224,3.094,3.094,0,0,0-.746-.186,4.666,4.666,0,0,1-.858-.261,1.555,1.555,0,0,1-.6-.336,1.285,1.285,0,0,1-.336-.447,1.545,1.545,0,0,1-.112-.6h0a1.225,1.225,0,0,1,.149-.634,1.538,1.538,0,0,1,.373-.485,1.891,1.891,0,0,1,.6-.336,2.4,2.4,0,0,1,.746-.112,3.117,3.117,0,0,1,1.081.186,3.715,3.715,0,0,1,.895.522l-.373.485a2.646,2.646,0,0,0-.82-.485,2.188,2.188,0,0,0-.858-.149,1.347,1.347,0,0,0-.895.261.847.847,0,0,0-.336.671h0a1.1,1.1,0,0,0,.075.373.783.783,0,0,0,.224.3,1.881,1.881,0,0,0,.485.261,5.308,5.308,0,0,0,.783.224,3.364,3.364,0,0,1,1.417.6,1.3,1.3,0,0,1,.447,1.044h0a1.366,1.366,0,0,1-.149.671,1.814,1.814,0,0,1-.41.522,1.892,1.892,0,0,1-.6.336A4.379,4.379,0,0,0,418.849,154.717Z" transform="translate(-349.348 -148.9)" fill="#fff"/>
      <path id="Path_52" data-name="Path 52" d="M432.6,149h4.139v.6h-3.468v1.939h3.095v.6h-3.095v2.013h3.5v.6H432.6Z" transform="translate(-359.445 -148.963)" fill="#fff"/>
      <path id="Path_53" data-name="Path 53" d="M450.671,154.754a2.962,2.962,0,0,1-1.193-.224,2.288,2.288,0,0,1-.895-.634,2.669,2.669,0,0,1-.6-.932,3.012,3.012,0,0,1-.186-1.156h0a2.992,2.992,0,0,1,.224-1.119,2.67,2.67,0,0,1,.6-.932,3.008,3.008,0,0,1,.895-.634,2.9,2.9,0,0,1,1.156-.224,4.052,4.052,0,0,1,.671.037,3.107,3.107,0,0,1,.559.149c.186.075.336.149.485.224a3.493,3.493,0,0,1,.447.336l-.41.485a2.044,2.044,0,0,0-.336-.261,1.742,1.742,0,0,0-.373-.186,2.1,2.1,0,0,0-.448-.149,2.468,2.468,0,0,0-.559-.037,2.212,2.212,0,0,0-.858.186,1.822,1.822,0,0,0-.671.522,2.381,2.381,0,0,0-.6,1.641h0a2.447,2.447,0,0,0,.149.932,2.483,2.483,0,0,0,.447.746,1.852,1.852,0,0,0,.708.485,2.443,2.443,0,0,0,.932.186,2.574,2.574,0,0,0,.932-.149,2.532,2.532,0,0,0,.708-.41v-1.417h-1.752v-.6h2.349V153.9a3.554,3.554,0,0,1-.969.6A4.167,4.167,0,0,1,450.671,154.754Z" transform="translate(-368.978 -148.9)" fill="#fff"/>
      <path id="Path_54" data-name="Path 54" d="M468.686,154.817a2.78,2.78,0,0,1-.969-.149,1.986,1.986,0,0,1-.746-.485,2.129,2.129,0,0,1-.485-.783,3.118,3.118,0,0,1-.186-1.081V149h.634v3.281a2.019,2.019,0,0,0,.447,1.417,1.631,1.631,0,0,0,1.268.485,1.686,1.686,0,0,0,1.268-.485,1.859,1.859,0,0,0,.447-1.417V149H471v3.281a3.118,3.118,0,0,1-.186,1.081,1.863,1.863,0,0,1-.485.783,1.986,1.986,0,0,1-.746.485A2.253,2.253,0,0,1,468.686,154.817Z" transform="translate(-380.58 -148.963)" fill="#fff"/>
      <path id="Path_55" data-name="Path 55" d="M484.3,149h2.461a2.449,2.449,0,0,1,.932.149,2.029,2.029,0,0,1,.671.41,1.42,1.42,0,0,1,.336.485,1.743,1.743,0,0,1,.112.634h0a1.743,1.743,0,0,1-.112.634,1.648,1.648,0,0,1-.82.82,3.152,3.152,0,0,1-.634.186L489,154.63h-.783l-1.641-2.2h-1.641v2.2H484.3Zm2.386,2.908a2.9,2.9,0,0,0,.6-.075,1.257,1.257,0,0,0,.447-.224,1.46,1.46,0,0,0,.3-.373,1.032,1.032,0,0,0,.112-.485h0a.96.96,0,0,0-.373-.82,1.777,1.777,0,0,0-1.081-.3h-1.753v2.312h1.753Z" transform="translate(-391.869 -148.963)" fill="#fff"/>
      <path id="Path_56" data-name="Path 56" d="M503.246,154.817a3.091,3.091,0,0,1-1.193-.224,2.754,2.754,0,0,1-.932-.634,3.062,3.062,0,0,1-.6-.932,2.993,2.993,0,0,1-.224-1.119h0a2.854,2.854,0,0,1,.224-1.119,2.67,2.67,0,0,1,.6-.932,2.754,2.754,0,0,1,.932-.634,3.293,3.293,0,0,1,2.386,0,2.754,2.754,0,0,1,.932.634,3.063,3.063,0,0,1,.6.932,2.992,2.992,0,0,1,.224,1.119h0a2.853,2.853,0,0,1-.224,1.119,2.672,2.672,0,0,1-.6.932,2.754,2.754,0,0,1-.932.634A2.962,2.962,0,0,1,503.246,154.817Zm.037-.6a2.252,2.252,0,0,0,.895-.186,2.386,2.386,0,0,0,.708-.485,2.48,2.48,0,0,0,.447-.746,2.506,2.506,0,0,0,.149-.895h0a2.574,2.574,0,0,0-.149-.932,1.987,1.987,0,0,0-.485-.746,2.5,2.5,0,0,0-.708-.522,2.241,2.241,0,0,0-1.79,0,2.387,2.387,0,0,0-.708.485,2.381,2.381,0,0,0-.6,1.641h0a2.574,2.574,0,0,0,.149.932,1.987,1.987,0,0,0,.485.746,2.493,2.493,0,0,0,.708.522A2.253,2.253,0,0,0,503.283,154.22Z" transform="translate(-401.903 -148.963)" fill="#fff"/>
      <path id="Path_57" data-name="Path 57" d="M521.949,154.717a3.63,3.63,0,0,1-1.268-.224,3.283,3.283,0,0,1-1.081-.671l.41-.485a3.119,3.119,0,0,0,.895.6,2.371,2.371,0,0,0,1.044.186,1.456,1.456,0,0,0,.932-.261.866.866,0,0,0,.336-.708h0a.89.89,0,0,0-.075-.336.784.784,0,0,0-.224-.3,2.48,2.48,0,0,0-.447-.224,3.093,3.093,0,0,0-.746-.186,4.668,4.668,0,0,1-.858-.261,1.555,1.555,0,0,1-.6-.336,1.284,1.284,0,0,1-.336-.447,1.545,1.545,0,0,1-.112-.6h0a1.226,1.226,0,0,1,.149-.634,1.538,1.538,0,0,1,.373-.485,1.89,1.89,0,0,1,.6-.336,2.4,2.4,0,0,1,.746-.112,3.118,3.118,0,0,1,1.081.186,3.715,3.715,0,0,1,.895.522l-.373.485a2.647,2.647,0,0,0-.82-.485,2.188,2.188,0,0,0-.858-.149,1.347,1.347,0,0,0-.895.261.847.847,0,0,0-.336.671h0a1.1,1.1,0,0,0,.074.373.783.783,0,0,0,.224.3,1.878,1.878,0,0,0,.485.261,5.3,5.3,0,0,0,.783.224,3.364,3.364,0,0,1,1.417.6,1.3,1.3,0,0,1,.447,1.044h0a1.365,1.365,0,0,1-.149.671,1.816,1.816,0,0,1-.41.522,1.89,1.89,0,0,1-.6.336A4.379,4.379,0,0,0,521.949,154.717Z" transform="translate(-414.007 -148.9)" fill="#fff"/>
    </g>
  </g>
  <path id="Path_58" data-name="Path 58" d="M131.977,10.093a11.526,11.526,0,0,0-4.362,5.034,7.845,7.845,0,0,0-2.424-2.759c-3.691-2.722-10.44-4.773-14.691-7.9,0,0,.186,5.481,4.176,8.427,3.542,2.61,7.494,3.095,9.359,4.325a6.835,6.835,0,0,1,2.647,3.318h0v.037a13.09,13.09,0,0,1,6.04-5.7c4.251-1.752,6.861-1.641,11.708-4.362C150.358,7.147,152.074.1,152.074.1,145.288,5.432,137.346,6.476,131.977,10.093Z" transform="translate(-69.56 -0.1)" fill="#fff"/>
  <path id="Path_59" data-name="Path 59" d="M78.553,49.8c-20.06,15.026-38.069.969-52.312,2.5-6.823.746-10.738,2.722-13.311,7.308-2.61,4.586-3.095,5.257-3.095,5.257,3.318-1.864,8.277-2.946,13.087-3.207,11.67-.634,22.856,5.817,33.893,5.63h0C45.48,68.555,34.928,62.7,19.6,65.013c-5.928.858-12.3,4.064-14.914,8.576L.7,80.6c10.626-5.593,21.663-5.928,34.34-1.417,17.04,6.04,24.348,3.952,27.666-1.752C64.981,73.365,72.624,60.2,72.624,60.2h0Z" transform="translate(-0.7 -31.269)" fill="#fff"/>
</svg>
