<svg id="rus" xmlns="http://www.w3.org/2000/svg" width="270.661" height="78.678" viewBox="0 0 270.661 78.678">
  <g id="Group_10" data-name="Group 10" transform="translate(112.157 13.535)">
    <g id="Group_9" data-name="Group 9" transform="translate(48.881)">
      <g id="Group_5" data-name="Group 5">
        <path id="Path_36" data-name="Path 36" d="M360.023,78.855c-5.6,0-12.579-1.674-16.692-5.6S337.4,63.693,337.4,58.1V29.4h14.922V58.1c0,2.631.622,5.6,2.726,7.366a8.37,8.37,0,0,0,7.987,1.1c3.874-1.435,4.687-5.548,4.687-9.231V29.4h15.544V58.145a21.029,21.029,0,0,1-5.739,14.922C373.415,77.085,365.667,78.855,360.023,78.855Z" transform="translate(-337.4 -28.922)" fill="#fff"/>
        <path id="Path_37" data-name="Path 37" d="M462.171,78.381a34.119,34.119,0,0,1-21.331-7.27l-.239-.191,4.687-6.122a4.937,4.937,0,0,1,4.161-1.961,9.364,9.364,0,0,1,4.209,1.1c2.822,1.435,5.4,2.631,8.418,2.678h.383c3.348,0,5.165-1,5.357-2.965.335-2.822-3.157-3.683-5.692-4.257l-1.339-.335C454.9,57.671,448.2,56.093,445,50.64a13.546,13.546,0,0,1,2.678-16.6c4.974-4.639,11.814-5.644,16.692-5.644.526,0,1.1,0,1.626.048a30.311,30.311,0,0,1,17.457,5.979l.239.191-3.97,6.122a5.3,5.3,0,0,1-4.4,2.3,9.962,9.962,0,0,1-3.874-.957,18.148,18.148,0,0,0-7.27-1.865,11.653,11.653,0,0,0-1.291.048,4.915,4.915,0,0,0-2.965,1.148,2.488,2.488,0,0,0-.67,1.77,1.421,1.421,0,0,0,.478,1.1c1.722,1.435,4.209,2.009,6.648,2.583.765.191,1.483.335,2.152.526,6.7,1.817,13.1,4.4,14.875,10.618,1.674,5.787-.861,12.483-6.122,16.262C472.454,77.615,466.38,78.381,462.171,78.381Z" transform="translate(-391.241 -28.4)" fill="#fff"/>
      </g>
      <g id="Group_8" data-name="Group 8" transform="translate(97.283 0.478)">
        <path id="Path_38" data-name="Path 38" d="M546.922,29.4a6.218,6.218,0,1,0,6.218,6.218A6.236,6.236,0,0,0,546.922,29.4Zm0,11.431a5.261,5.261,0,1,1,5.261-5.261A5.257,5.257,0,0,1,546.922,40.831Z" transform="translate(-540.8 -29.4)" fill="#fff"/>
        <g id="Group_7" data-name="Group 7" transform="translate(3.396 3.013)">
          <g id="Group_6" data-name="Group 6">
            <path id="Path_39" data-name="Path 39" d="M547.9,35.7h3.013a2.655,2.655,0,0,1,1.913.67,1.981,1.981,0,0,1,.574,1.483h0a2.177,2.177,0,0,1-.383,1.291,1.951,1.951,0,0,1-1,.717l1.578,2.344h-1.674l-1.387-2.1h-1.148v2.1h-1.435V35.7Zm2.87,3.157a1.368,1.368,0,0,0,.813-.239.868.868,0,0,0,.287-.67h0a.973.973,0,0,0-.287-.717,1.368,1.368,0,0,0-.813-.239h-1.435v1.865Z" transform="translate(-547.9 -35.7)" fill="#fff"/>
          </g>
        </g>
      </g>
    </g>
    <path id="Path_40" data-name="Path 40" d="M270.115,59.854a15.236,15.236,0,0,0,7.892-14.014V45.7a15.47,15.47,0,0,0-4.352-11.383,16.926,16.926,0,0,0-6.313-3.826,28.081,28.081,0,0,0-9.374-1.387H235.2V77.167h14.444V63.058h4.544c.574,0,1.1,0,1.626-.048v.048s4.018,5.979,6.839,10.331c2.439,3.731,7.461,3.731,10.953,3.731h8.274S273.319,64.589,270.115,59.854Zm-20.423-8.418V41.727h7.748a7.85,7.85,0,0,1,4.639,1.244,4.137,4.137,0,0,1,1.578,3.587V46.7a4.327,4.327,0,0,1-1.531,3.444,7.192,7.192,0,0,1-4.592,1.339h-7.844Z" transform="translate(-235.2 -28.765)" fill="#fff"/>
  </g>
  <g id="Group_12" data-name="Group 12" transform="translate(112.731 71.169)">
    <g id="Group_11" data-name="Group 11">
      <path id="Path_41" data-name="Path 41" d="M236.4,149h3.157a3.141,3.141,0,0,1,1.2.191,2.6,2.6,0,0,1,.861.526,1.819,1.819,0,0,1,.43.622,2.234,2.234,0,0,1,.143.813h0a2.234,2.234,0,0,1-.143.813,2.114,2.114,0,0,1-1.052,1.052,4.043,4.043,0,0,1-.813.239l2.248,2.965h-1l-2.1-2.822h-2.1v2.822H236.4V149Zm3.061,3.731a3.718,3.718,0,0,0,.765-.1,1.612,1.612,0,0,0,.574-.287,1.873,1.873,0,0,0,.383-.478,1.324,1.324,0,0,0,.144-.622h0a1.231,1.231,0,0,0-.478-1.052,2.28,2.28,0,0,0-1.387-.383h-2.248v2.965h2.248Z" transform="translate(-236.4 -148.952)" fill="#fff"/>
      <path id="Path_42" data-name="Path 42" d="M253.5,149h.813v7.318H253.5Z" transform="translate(-245.321 -148.952)" fill="#fff"/>
      <path id="Path_43" data-name="Path 43" d="M263.778,156.461a3.966,3.966,0,0,1-1.53-.287,3.533,3.533,0,0,1-1.2-.813,3.929,3.929,0,0,1-.765-1.2,3.839,3.839,0,0,1-.287-1.435h0a3.66,3.66,0,0,1,.287-1.435,3.425,3.425,0,0,1,.765-1.2,3.533,3.533,0,0,1,1.2-.813,4.225,4.225,0,0,1,3.061,0,3.532,3.532,0,0,1,1.2.813,3.929,3.929,0,0,1,.765,1.2,3.839,3.839,0,0,1,.287,1.435h0a3.661,3.661,0,0,1-.287,1.435,3.425,3.425,0,0,1-.765,1.2,3.532,3.532,0,0,1-1.2.813A4.144,4.144,0,0,1,263.778,156.461Zm0-.765a2.889,2.889,0,0,0,1.148-.239,3.062,3.062,0,0,0,.909-.622,3.183,3.183,0,0,0,.574-.957,3.215,3.215,0,0,0,.191-1.148h0a3.3,3.3,0,0,0-.191-1.2,2.548,2.548,0,0,0-.622-.957,3.2,3.2,0,0,0-.909-.67,2.874,2.874,0,0,0-2.3,0,3.063,3.063,0,0,0-.909.622,3.055,3.055,0,0,0-.765,2.1h0a3.3,3.3,0,0,0,.191,1.2,2.548,2.548,0,0,0,.622.957,3.2,3.2,0,0,0,.909.67A2.889,2.889,0,0,0,263.778,155.7Z" transform="translate(-248.712 -148.952)" fill="#fff"/>
      <path id="Path_44" data-name="Path 44" d="M290.861,156.461a3.568,3.568,0,0,1-1.244-.191,2.548,2.548,0,0,1-.957-.622,2.73,2.73,0,0,1-.622-1,4,4,0,0,1-.239-1.387V149h.813v4.209a2.59,2.59,0,0,0,.574,1.817,2.093,2.093,0,0,0,1.626.622,2.162,2.162,0,0,0,1.626-.622,2.384,2.384,0,0,0,.574-1.817V149h.813v4.209a4,4,0,0,1-.239,1.387,2.389,2.389,0,0,1-.622,1,2.549,2.549,0,0,1-.957.622A2.719,2.719,0,0,1,290.861,156.461Z" transform="translate(-263.216 -148.952)" fill="#fff"/>
      <path id="Path_45" data-name="Path 45" d="M305.7,149h3.157a3.141,3.141,0,0,1,1.2.191,2.6,2.6,0,0,1,.861.526,1.82,1.82,0,0,1,.43.622,2.235,2.235,0,0,1,.143.813h0a2.234,2.234,0,0,1-.143.813,2.114,2.114,0,0,1-1.052,1.052,4.04,4.04,0,0,1-.813.239l2.248,2.965h-1l-2.1-2.822h-2.1v2.822H305.7Zm3.061,3.731a3.717,3.717,0,0,0,.765-.1,1.611,1.611,0,0,0,.574-.287,1.873,1.873,0,0,0,.383-.478,1.324,1.324,0,0,0,.143-.622h0a1.231,1.231,0,0,0-.478-1.052,2.28,2.28,0,0,0-1.387-.383h-2.248v2.965h2.248Z" transform="translate(-272.555 -148.952)" fill="#fff"/>
      <path id="Path_46" data-name="Path 46" d="M325.361,156.461a3.567,3.567,0,0,1-1.244-.191,2.547,2.547,0,0,1-.957-.622,2.731,2.731,0,0,1-.622-1,4,4,0,0,1-.239-1.387V149h.813v4.209a2.59,2.59,0,0,0,.574,1.817,2.093,2.093,0,0,0,1.626.622,2.162,2.162,0,0,0,1.626-.622,2.384,2.384,0,0,0,.574-1.817V149h.813v4.209a4,4,0,0,1-.239,1.387,2.39,2.39,0,0,1-.622,1,2.549,2.549,0,0,1-.957.622A2.89,2.89,0,0,1,325.361,156.461Z" transform="translate(-281.215 -148.952)" fill="#fff"/>
      <path id="Path_47" data-name="Path 47" d="M343.383,156.409a3.8,3.8,0,0,1-1.531-.287,2.936,2.936,0,0,1-1.148-.813,3.425,3.425,0,0,1-.765-1.2,3.863,3.863,0,0,1-.239-1.483h0a3.839,3.839,0,0,1,.287-1.435,3.425,3.425,0,0,1,.765-1.2,3.86,3.86,0,0,1,1.148-.813,3.727,3.727,0,0,1,1.483-.287,5.2,5.2,0,0,1,.861.048,3.987,3.987,0,0,1,.717.191c.239.1.43.191.622.287a4.491,4.491,0,0,1,.574.43l-.526.622a2.631,2.631,0,0,0-.43-.335,2.235,2.235,0,0,0-.478-.239,2.694,2.694,0,0,0-.574-.191,3.167,3.167,0,0,0-.717-.048,2.837,2.837,0,0,0-1.1.239,2.337,2.337,0,0,0-.861.67,3.055,3.055,0,0,0-.765,2.1h0a3.14,3.14,0,0,0,.191,1.2,3.184,3.184,0,0,0,.574.957,2.376,2.376,0,0,0,.909.622,3.133,3.133,0,0,0,1.2.239,3.3,3.3,0,0,0,1.2-.191,3.25,3.25,0,0,0,.909-.526v-1.817h-2.248v-.765h3.013v2.918a4.559,4.559,0,0,1-1.243.765A5.346,5.346,0,0,1,343.383,156.409Z" transform="translate(-290.293 -148.9)" fill="#fff"/>
      <path id="Path_48" data-name="Path 48" d="M361.261,156.461a3.567,3.567,0,0,1-1.244-.191,2.548,2.548,0,0,1-.957-.622,2.73,2.73,0,0,1-.622-1,4,4,0,0,1-.239-1.387V149h.813v4.209a2.59,2.59,0,0,0,.574,1.817,2.093,2.093,0,0,0,1.626.622,2.162,2.162,0,0,0,1.626-.622,2.384,2.384,0,0,0,.574-1.817V149h.813v4.209a4,4,0,0,1-.239,1.387,2.391,2.391,0,0,1-.622,1,3.136,3.136,0,0,1-2.1.861Z" transform="translate(-299.945 -148.952)" fill="#fff"/>
      <path id="Path_49" data-name="Path 49" d="M378.148,148.9h.765l3.348,7.366h-.909l-.861-1.913h-3.97l-.861,1.913H374.8Zm2.057,4.687-1.674-3.731-1.674,3.731Z" transform="translate(-308.606 -148.9)" fill="#fff"/>
      <path id="Path_50" data-name="Path 50" d="M395.961,153.5l-3.061-4.4h1l2.439,3.635,2.487-3.635h.957l-3.061,4.4v2.918h-.813V153.5Z" transform="translate(-318.049 -149.004)" fill="#fff"/>
      <path id="Path_51" data-name="Path 51" d="M419.513,156.361a4.657,4.657,0,0,1-1.626-.287,4.21,4.21,0,0,1-1.387-.861l.526-.622a4,4,0,0,0,1.148.765,3.042,3.042,0,0,0,1.339.239,1.867,1.867,0,0,0,1.2-.335,1.111,1.111,0,0,0,.43-.909h0a1.143,1.143,0,0,0-.1-.43,1,1,0,0,0-.287-.383,3.182,3.182,0,0,0-.574-.287,3.97,3.97,0,0,0-.957-.239,5.984,5.984,0,0,1-1.1-.335,2,2,0,0,1-.765-.43,1.649,1.649,0,0,1-.43-.574,1.982,1.982,0,0,1-.143-.765h0a1.572,1.572,0,0,1,.191-.813,1.972,1.972,0,0,1,.478-.622,2.426,2.426,0,0,1,.765-.43,3.084,3.084,0,0,1,.957-.143,4,4,0,0,1,1.387.239,4.766,4.766,0,0,1,1.148.67l-.478.622a3.394,3.394,0,0,0-1.052-.622,2.806,2.806,0,0,0-1.1-.191,1.728,1.728,0,0,0-1.148.335,1.086,1.086,0,0,0-.43.861h0a1.415,1.415,0,0,0,.1.478,1,1,0,0,0,.287.383,2.414,2.414,0,0,0,.622.335,6.809,6.809,0,0,0,1,.287,4.316,4.316,0,0,1,1.818.765,1.669,1.669,0,0,1,.574,1.339h0a1.752,1.752,0,0,1-.191.861,2.327,2.327,0,0,1-.526.67,2.426,2.426,0,0,1-.765.43A5.618,5.618,0,0,0,419.513,156.361Z" transform="translate(-330.361 -148.9)" fill="#fff"/>
      <path id="Path_52" data-name="Path 52" d="M432.6,149h5.309v.765h-4.448v2.487h3.97v.765h-3.97V155.6h4.5v.765H432.6Z" transform="translate(-338.761 -148.952)" fill="#fff"/>
      <path id="Path_53" data-name="Path 53" d="M451.483,156.409a3.8,3.8,0,0,1-1.531-.287,2.936,2.936,0,0,1-1.148-.813,3.424,3.424,0,0,1-.765-1.2,3.865,3.865,0,0,1-.239-1.483h0a3.838,3.838,0,0,1,.287-1.435,3.425,3.425,0,0,1,.765-1.2,3.859,3.859,0,0,1,1.148-.813,3.726,3.726,0,0,1,1.483-.287,5.2,5.2,0,0,1,.861.048,3.986,3.986,0,0,1,.717.191c.239.1.43.191.622.287a4.482,4.482,0,0,1,.574.43l-.526.622a2.623,2.623,0,0,0-.43-.335,2.234,2.234,0,0,0-.478-.239,2.693,2.693,0,0,0-.574-.191,3.166,3.166,0,0,0-.717-.048,2.837,2.837,0,0,0-1.1.239,2.337,2.337,0,0,0-.861.67,3.055,3.055,0,0,0-.765,2.1h0a3.139,3.139,0,0,0,.191,1.2,3.184,3.184,0,0,0,.574.957,2.376,2.376,0,0,0,.909.622,3.133,3.133,0,0,0,1.2.239,3.3,3.3,0,0,0,1.2-.191,3.248,3.248,0,0,0,.909-.526v-1.817h-2.248v-.765h3.013v2.918a4.559,4.559,0,0,1-1.244.765A5.346,5.346,0,0,1,451.483,156.409Z" transform="translate(-346.691 -148.9)" fill="#fff"/>
      <path id="Path_54" data-name="Path 54" d="M469.361,156.461a3.566,3.566,0,0,1-1.243-.191,2.548,2.548,0,0,1-.957-.622,2.731,2.731,0,0,1-.622-1,4,4,0,0,1-.239-1.387V149h.813v4.209a2.59,2.59,0,0,0,.574,1.817,2.093,2.093,0,0,0,1.626.622,2.163,2.163,0,0,0,1.626-.622,2.384,2.384,0,0,0,.574-1.817V149h.813v4.209a4,4,0,0,1-.239,1.387,2.39,2.39,0,0,1-.622,1,2.548,2.548,0,0,1-.956.622A2.891,2.891,0,0,1,469.361,156.461Z" transform="translate(-356.343 -148.952)" fill="#fff"/>
      <path id="Path_55" data-name="Path 55" d="M484.3,149h3.157a3.141,3.141,0,0,1,1.2.191,2.6,2.6,0,0,1,.861.526,1.821,1.821,0,0,1,.43.622,2.235,2.235,0,0,1,.143.813h0a2.235,2.235,0,0,1-.143.813,2.114,2.114,0,0,1-1.052,1.052,4.043,4.043,0,0,1-.813.239l2.248,2.965h-1l-2.1-2.822h-2.1v2.822H484.3Zm3.061,3.731a3.717,3.717,0,0,0,.765-.1,1.612,1.612,0,0,0,.574-.287,1.873,1.873,0,0,0,.383-.478,1.324,1.324,0,0,0,.144-.622h0a1.231,1.231,0,0,0-.478-1.052,2.28,2.28,0,0,0-1.387-.383h-2.248v2.965h2.248Z" transform="translate(-365.734 -148.952)" fill="#fff"/>
      <path id="Path_56" data-name="Path 56" d="M504.078,156.461a3.966,3.966,0,0,1-1.531-.287,3.533,3.533,0,0,1-1.2-.813,3.928,3.928,0,0,1-.765-1.2,3.839,3.839,0,0,1-.287-1.435h0a3.661,3.661,0,0,1,.287-1.435,3.424,3.424,0,0,1,.765-1.2,3.533,3.533,0,0,1,1.2-.813,4.225,4.225,0,0,1,3.061,0,3.533,3.533,0,0,1,1.2.813,3.928,3.928,0,0,1,.765,1.2,3.838,3.838,0,0,1,.287,1.435h0a3.66,3.66,0,0,1-.287,1.435,3.426,3.426,0,0,1-.765,1.2,3.533,3.533,0,0,1-1.2.813A3.8,3.8,0,0,1,504.078,156.461Zm.048-.765a2.889,2.889,0,0,0,1.148-.239,3.063,3.063,0,0,0,.909-.622,3.181,3.181,0,0,0,.574-.957,3.215,3.215,0,0,0,.191-1.148h0a3.3,3.3,0,0,0-.191-1.2,2.548,2.548,0,0,0-.622-.957,3.2,3.2,0,0,0-.909-.67,2.874,2.874,0,0,0-2.3,0,3.062,3.062,0,0,0-.909.622,3.054,3.054,0,0,0-.765,2.1h0a3.3,3.3,0,0,0,.191,1.2,2.549,2.549,0,0,0,.622.957,3.2,3.2,0,0,0,.909.67A2.89,2.89,0,0,0,504.126,155.7Z" transform="translate(-374.081 -148.952)" fill="#fff"/>
      <path id="Path_57" data-name="Path 57" d="M522.613,156.361a4.657,4.657,0,0,1-1.626-.287,4.211,4.211,0,0,1-1.387-.861l.526-.622a4,4,0,0,0,1.148.765,3.042,3.042,0,0,0,1.339.239,1.867,1.867,0,0,0,1.2-.335,1.111,1.111,0,0,0,.43-.909h0a1.142,1.142,0,0,0-.1-.43,1.006,1.006,0,0,0-.287-.383,3.184,3.184,0,0,0-.574-.287,3.968,3.968,0,0,0-.957-.239,5.989,5.989,0,0,1-1.1-.335,1.994,1.994,0,0,1-.765-.43,1.647,1.647,0,0,1-.43-.574,1.983,1.983,0,0,1-.143-.765h0a1.572,1.572,0,0,1,.191-.813,1.972,1.972,0,0,1,.478-.622,2.424,2.424,0,0,1,.765-.43,3.085,3.085,0,0,1,.957-.143,4,4,0,0,1,1.387.239,4.765,4.765,0,0,1,1.148.67l-.478.622a3.4,3.4,0,0,0-1.052-.622,2.807,2.807,0,0,0-1.1-.191,1.728,1.728,0,0,0-1.148.335,1.087,1.087,0,0,0-.43.861h0a1.416,1.416,0,0,0,.1.478,1,1,0,0,0,.287.383,2.411,2.411,0,0,0,.622.335,6.806,6.806,0,0,0,1,.287,4.315,4.315,0,0,1,1.817.765A1.669,1.669,0,0,1,525,154.4h0a1.75,1.75,0,0,1-.191.861,2.327,2.327,0,0,1-.526.67,2.425,2.425,0,0,1-.765.43A5.618,5.618,0,0,0,522.613,156.361Z" transform="translate(-384.15 -148.9)" fill="#fff"/>
    </g>
  </g>
  <path id="Path_58" data-name="Path 58" d="M138.049,12.918a14.785,14.785,0,0,0-5.6,6.457,10.063,10.063,0,0,0-3.109-3.539C124.609,12.344,115.952,9.713,110.5,5.7c0,0,.239,7.031,5.357,10.809,4.544,3.348,9.613,3.97,12,5.548a8.768,8.768,0,0,1,3.4,4.257h0v.048a16.792,16.792,0,0,1,7.748-7.318c5.452-2.248,8.8-2.1,15.018-5.6,7.6-4.3,9.8-13.344,9.8-13.344C155.124,6.939,144.936,8.279,138.049,12.918Z" transform="translate(-57.985 -0.1)" fill="#fff"/>
  <path id="Path_59" data-name="Path 59" d="M100.566,49.8c-25.732,19.275-48.833,1.244-67.1,3.2-8.753.957-13.775,3.491-17.075,9.374-3.348,5.883-3.97,6.744-3.97,6.744,4.257-2.391,10.618-3.778,16.788-4.113,14.97-.813,29.319,7.461,43.476,7.222h0c-14.54,1.626-28.075-5.883-47.733-2.918-7.6,1.1-15.783,5.213-19.131,11L.7,89.306c13.631-7.174,27.788-7.6,44.05-1.817,21.858,7.748,31.232,5.07,35.489-2.248,2.918-5.213,12.722-22.1,12.722-22.1h0Z" transform="translate(-0.7 -26.029)" fill="#fff"/>
</svg>
